<svg width="23" height="25" viewBox="0 0 23 25" fill="none" xmlns="http://www.w3.org/2000/svg">
<path d="M13.5281 10.1931L8.87954 15.2531C8.28239 14.6031 7.91492 13.7131 7.91492 12.7231C7.91492 10.7431 9.38483 9.14307 11.2038 9.14307C12.1133 9.14307 12.931 9.54307 13.5281 10.1931Z" stroke="#C3C3C3" stroke-width="1.5" stroke-linecap="round" stroke-linejoin="round"/>
<path d="M16.5529 6.49312C14.9448 5.17312 13.107 4.45312 11.2048 4.45312C7.96099 4.45312 4.93774 6.53312 2.83341 10.1331C2.00638 11.5431 2.00638 13.9131 2.83341 15.3231C3.55936 16.5631 4.40476 17.6331 5.32369 18.4931" stroke="#C3C3C3" stroke-width="1.5" stroke-linecap="round" stroke-linejoin="round"/>
<path d="M7.91492 20.2533C8.96249 20.7333 10.0744 20.9933 11.2047 20.9933C14.4485 20.9933 17.4717 18.9133 19.576 15.3133C20.4031 13.9033 20.4031 11.5333 19.576 10.1233C19.2728 9.60332 18.942 9.11332 18.602 8.65332" stroke="#C3C3C3" stroke-width="1.5" stroke-linecap="round" stroke-linejoin="round"/>
<path d="M14.4303 13.4233C14.1915 14.8333 13.135 15.9833 11.8396 16.2433" stroke="#C3C3C3" stroke-width="1.5" stroke-linecap="round" stroke-linejoin="round"/>
<path d="M8.87885 15.2529L2.01514 22.7229" stroke="#C3C3C3" stroke-width="1.5" stroke-linecap="round" stroke-linejoin="round"/>
<path d="M20.394 2.72314L13.5303 10.1931" stroke="#C3C3C3" stroke-width="1.5" stroke-linecap="round" stroke-linejoin="round"/>
</svg>
